<svg version="1.1" id="Layer_1" xmlns="http://www.w3.org/2000/svg" xmlns:xlink="http://www.w3.org/1999/xlink" x="0px" y="0px"
	 width="100%" viewBox="0 0 500 500" enable-background="new 0 0 500 500" xml:space="preserve">
<path fill="#213970" opacity="1.000000" stroke="none" 
	d="
M501.000000,178.000000 
	C501.000000,285.999969 501.000000,393.499939 501.000000,500.999939 
	C334.333405,500.999939 167.666794,500.999939 1.000147,500.999969 
	C1.000098,334.333435 1.000098,167.666870 1.000049,1.000237 
	C167.666519,1.000158 334.333038,1.000158 500.999786,1.000079 
	C501.000000,59.833332 501.000000,118.666664 501.000000,178.000000 
M98.537766,412.960754 
	C141.700287,453.065887 193.035812,473.029358 251.659637,473.447266 
	C267.474426,473.560059 283.598724,471.306763 299.098541,467.927124 
	C404.435699,444.959045 477.438263,349.612518 473.198700,243.100433 
	C471.398560,197.874222 458.115753,156.552521 430.933807,120.479485 
	C381.018372,54.236958 313.881256,23.540863 231.297531,29.559612 
	C178.699356,33.392998 132.951248,54.957840 95.394058,92.205376 
	C46.048336,141.144257 23.936176,200.926025 29.444828,270.028076 
	C33.904396,325.970123 57.252247,373.615356 98.537766,412.960754 
z"/>
<path fill="#F8F8FA" opacity="1.000000" stroke="none" 
	d="
M98.282799,412.716522 
	C57.252247,373.615356 33.904396,325.970123 29.444828,270.028076 
	C23.936176,200.926025 46.048336,141.144257 95.394058,92.205376 
	C132.951248,54.957840 178.699356,33.392998 231.297531,29.559612 
	C313.881256,23.540863 381.018372,54.236958 430.933807,120.479485 
	C458.115753,156.552521 471.398560,197.874222 473.198700,243.100433 
	C477.438263,349.612518 404.435699,444.959045 299.098541,467.927124 
	C283.598724,471.306763 267.474426,473.560059 251.659637,473.447266 
	C193.035812,473.029358 141.700287,453.065887 98.282799,412.716522 
M438.500427,245.984451 
	C447.957977,245.984451 457.415527,245.984451 466.865448,245.984451 
	C466.885803,131.078613 366.964905,34.486679 255.833481,35.292892 
	C255.833481,51.159138 255.833481,67.038437 255.833481,82.782669 
	C252.303360,82.782669 249.352463,82.782669 245.855423,82.782669 
	C245.855423,66.692970 245.855423,50.807549 245.855423,34.927322 
	C126.028465,36.899826 35.048317,137.946686 35.071995,246.024506 
	C50.956379,246.024506 66.851944,246.024506 82.711510,246.024506 
	C82.711510,249.636307 82.711510,252.700180 82.711510,256.124268 
	C66.645538,256.124268 50.878151,256.124268 35.117012,256.124268 
	C35.353436,373.728638 137.394089,467.442841 246.152618,466.713440 
	C246.152618,450.840881 246.152618,434.956207 246.152618,419.196106 
	C249.673508,419.196106 252.627808,419.196106 256.117889,419.196106 
	C256.117889,435.282776 256.117889,451.176727 256.117889,467.066681 
	C372.865082,465.205688 466.557861,367.673950 466.914734,255.991180 
	C451.028320,255.991180 435.132141,255.991180 419.281769,255.991180 
	C419.281769,252.377930 419.281769,249.310516 419.281769,245.984451 
	C425.549438,245.984451 431.525055,245.984451 438.500427,245.984451 
z"/>
<path fill="#213970" opacity="1.000000" stroke="none" 
	d="
M438.000549,245.984451 
	C431.525055,245.984451 425.549438,245.984451 419.281769,245.984451 
	C419.281769,249.310516 419.281769,252.377930 419.281769,255.991180 
	C435.132141,255.991180 451.028320,255.991180 466.914734,255.991180 
	C466.557861,367.673950 372.865082,465.205688 256.117889,467.066681 
	C256.117889,451.176727 256.117889,435.282776 256.117889,419.196106 
	C252.627808,419.196106 249.673508,419.196106 246.152618,419.196106 
	C246.152618,434.956207 246.152618,450.840881 246.152618,466.713440 
	C137.394089,467.442841 35.353436,373.728638 35.117012,256.124268 
	C50.878151,256.124268 66.645538,256.124268 82.711510,256.124268 
	C82.711510,252.700180 82.711510,249.636307 82.711510,246.024506 
	C66.851944,246.024506 50.956379,246.024506 35.071995,246.024506 
	C35.048317,137.946686 126.028465,36.899826 245.855423,34.927322 
	C245.855423,50.807549 245.855423,66.692970 245.855423,82.782669 
	C249.352463,82.782669 252.303360,82.782669 255.833481,82.782669 
	C255.833481,67.038437 255.833481,51.159138 255.833481,35.292892 
	C366.964905,34.486679 466.885803,131.078613 466.865448,245.984451 
	C457.415527,245.984451 447.957977,245.984451 438.000549,245.984451 
M223.428070,276.954315 
	C226.250595,276.774231 229.144638,276.931732 231.882431,276.351715 
	C240.592621,274.506348 248.112823,275.728394 253.851608,283.323059 
	C255.430344,285.412323 257.589691,287.164978 259.754974,288.683899 
	C262.692841,290.744781 263.388458,293.348694 263.339966,296.796875 
	C263.157867,309.752380 263.266968,322.711945 263.266968,335.595062 
	C275.104004,337.305176 278.238220,335.647949 282.810089,325.601990 
	C290.036469,309.723175 297.276123,293.850464 304.493317,277.967499 
	C310.430725,264.900970 310.474884,265.231171 324.661346,262.903168 
	C345.020660,259.562225 365.208984,255.287811 384.256561,247.033493 
	C389.082245,244.942261 393.888275,242.291306 397.892944,238.931595 
	C405.261108,232.750061 403.538116,225.096924 394.469849,221.859756 
	C390.092041,220.296982 385.291748,219.596298 381.270447,217.419540 
	C371.293304,212.018829 361.427307,213.307449 351.328857,216.526169 
	C347.228973,217.832916 343.103729,219.162750 338.894592,220.004868 
	C325.847900,222.615097 312.783600,225.166351 299.660553,227.345444 
	C296.416443,227.884125 292.623322,227.705521 289.589966,226.538147 
	C239.819229,207.383881 190.054520,188.207794 140.493317,168.520950 
	C131.800873,165.068100 125.162651,165.479065 119.011810,172.981613 
	C120.522842,173.970886 122.149277,175.070190 123.808807,176.117035 
	C148.008804,191.382629 172.442856,206.294861 196.283890,222.101608 
	C203.952026,227.185623 210.059570,234.623444 217.594315,241.649521 
	C205.682083,243.967163 195.183258,245.766129 184.819595,248.152191 
	C180.950134,249.043091 178.765533,247.945236 176.349945,245.175690 
	C170.767853,238.775726 164.951508,232.573486 159.079971,226.434708 
	C154.380646,221.521454 148.930557,219.139145 142.040009,222.527664 
	C142.687225,230.163620 143.330765,237.756119 144.020615,245.895157 
	C141.893463,244.921936 140.241409,244.187271 138.607178,243.414871 
	C130.193069,239.437973 121.807030,235.400711 113.362793,231.488998 
	C108.964096,229.451340 104.778725,229.451294 100.838654,233.766144 
	C111.410721,243.677109 121.828484,253.443420 132.214844,263.180267 
	C129.003433,268.968933 129.331314,271.393036 134.061386,271.653107 
	C139.938004,271.976196 142.852844,275.350922 145.705368,279.563416 
	C147.849579,282.729889 150.272995,285.706390 152.545532,288.787079 
	C154.339569,291.219116 155.924866,293.606476 159.736694,292.931946 
	C163.909424,292.193542 164.161331,288.998535 164.910019,285.977509 
	C165.700638,282.787262 166.448532,279.586395 167.069504,276.997192 
	C185.892288,276.997192 204.171341,276.997192 223.428070,276.954315 
z"/>
<path fill="#FDFDFE" opacity="1.000000" stroke="none" 
	d="
M222.939240,276.975769 
	C204.171341,276.997192 185.892288,276.997192 167.069504,276.997192 
	C166.448532,279.586395 165.700638,282.787262 164.910019,285.977509 
	C164.161331,288.998535 163.909424,292.193542 159.736694,292.931946 
	C155.924866,293.606476 154.339569,291.219116 152.545532,288.787079 
	C150.272995,285.706390 147.849579,282.729889 145.705368,279.563416 
	C142.852844,275.350922 139.938004,271.976196 134.061386,271.653107 
	C129.331314,271.393036 129.003433,268.968933 132.214844,263.180267 
	C121.828484,253.443420 111.410721,243.677109 100.838654,233.766144 
	C104.778725,229.451294 108.964096,229.451340 113.362793,231.488998 
	C121.807030,235.400711 130.193069,239.437973 138.607178,243.414871 
	C140.241409,244.187271 141.893463,244.921936 144.020615,245.895157 
	C143.330765,237.756119 142.687225,230.163620 142.040009,222.527664 
	C148.930557,219.139145 154.380646,221.521454 159.079971,226.434708 
	C164.951508,232.573486 170.767853,238.775726 176.349945,245.175690 
	C178.765533,247.945236 180.950134,249.043091 184.819595,248.152191 
	C195.183258,245.766129 205.682083,243.967163 217.594315,241.649521 
	C210.059570,234.623444 203.952026,227.185623 196.283890,222.101608 
	C172.442856,206.294861 148.008804,191.382629 123.808807,176.117035 
	C122.149277,175.070190 120.522842,173.970886 119.011810,172.981613 
	C125.162651,165.479065 131.800873,165.068100 140.493317,168.520950 
	C190.054520,188.207794 239.819229,207.383881 289.589966,226.538147 
	C292.623322,227.705521 296.416443,227.884125 299.660553,227.345444 
	C312.783600,225.166351 325.847900,222.615097 338.894592,220.004868 
	C343.103729,219.162750 347.228973,217.832916 351.328857,216.526169 
	C361.427307,213.307449 371.293304,212.018829 381.270447,217.419540 
	C385.291748,219.596298 390.092041,220.296982 394.469849,221.859756 
	C403.538116,225.096924 405.261108,232.750061 397.892944,238.931595 
	C393.888275,242.291306 389.082245,244.942261 384.256561,247.033493 
	C365.208984,255.287811 345.020660,259.562225 324.661346,262.903168 
	C310.474884,265.231171 310.430725,264.900970 304.493317,277.967499 
	C297.276123,293.850464 290.036469,309.723175 282.810089,325.601990 
	C278.238220,335.647949 275.104004,337.305176 263.266968,335.595062 
	C263.266968,322.711945 263.157867,309.752380 263.339966,296.796875 
	C263.388458,293.348694 262.692841,290.744781 259.754974,288.683899 
	C257.589691,287.164978 255.430344,285.412323 253.851608,283.323059 
	C248.112823,275.728394 240.592621,274.506348 231.882431,276.351715 
	C229.144638,276.931732 226.250595,276.774231 222.939240,276.975769 
z"/>
</svg>